<?xml version="1.0" encoding="utf-8"?>
<!-- Generator: Adobe Illustrator 16.0.0, SVG Export Plug-In . SVG Version: 6.00 Build 0)  -->
<!DOCTYPE svg PUBLIC "-//W3C//DTD SVG 1.1//EN" "http://www.w3.org/Graphics/SVG/1.1/DTD/svg11.dtd">
<svg version="1.1" id="Layer_1" xmlns="http://www.w3.org/2000/svg" xmlns:xlink="http://www.w3.org/1999/xlink" x="0px" y="0px"
	 width="21px" height="300px" viewBox="0 0 21 300" enable-background="new 0 0 21 300" xml:space="preserve">
<path fill="#7E8282" d="M2,193h3v3H2V193z"/>
<path fill="#7E8282" d="M2,198h3v3H2V198z"/>
<path fill="#7E8282" d="M2,203h3v3H2V203z"/>
<path fill="#7E8282" d="M7,193h11v3H7V193z"/>
<path fill="#7E8282" d="M7,198h11v3H7V198z"/>
<path fill="#7E8282" d="M7,203h11v3H7V203z"/>
<path fill="#7E8282" d="M18.688,169.62l-3.904-3.442c-0.383-0.345-0.781-0.191-0.781,0.34v1.674l-6.152,0.651
	c-0.639,0.038-0.718,0.693-0.366,0.845L14,172.146v1.83c0,0.53,0.398,0.685,0.781,0.34l3.863-3.442
	C19.025,170.529,19.068,169.965,18.688,169.62z"/>
<path fill="#7E8282" d="M13.539,175.309L7,172.848v-1.832c0-0.529-0.335-0.683-0.717-0.338l-1.875,1.682l0,0l-2.22,1.996
	c-0.239,0.217-0.242,0.567-0.002,0.783l2.213,1.996l0,0l1.885,1.682C6.666,179.16,7,179.008,7,178.477v-1.674l6.229-0.65
	C13.866,176.113,13.891,175.457,13.539,175.309z"/>
<path fill="#7E8282" d="M20,142.875l-7.055-0.279L10.5,136l-2.446,6.596L1,142.875l5.542,4.356L4.628,154l5.872-3.904L16.371,154
	l-1.913-6.769L20,142.875z M10.5,148.102l-3.048,2.027l0.993-3.514l-2.877-2.262l3.662-0.145l1.27-3.424l1.27,3.424l3.662,0.145
	l-2.877,2.262l0.993,3.514L10.5,148.102z"/>
<path fill="#7E8282" d="M5,117h2v2H5V117z"/>
<path fill="#7E8282" d="M8,117h2v2H8V117z"/>
<path fill="#7E8282" d="M11,117h2v2h-2V117z"/>
<polygon fill="#7E8282" points="18,110 17,110 4,110 4,112 17,112 17,123 19,123 19,110 "/>
<polygon fill="#7E8282" points="17,83 4,83 2,83 2,85 2,91 4,91 4,85 17,85 17,98 11,98 11,100 17,100 19,100 19,98 19,85 19,83 "/>
<path fill="#7E8282" d="M2,93v7h7v-7H2z M7,98H4v-3h3V98z"/>
<polygon fill="#7E8282" points="15,87 10,87 11.832,88.832 9.197,91.467 10.612,92.881 13.246,90.246 15,92 "/>
<polygon fill="#7E8282" points="17,57 17,61 4,61 4,57 2,57 2,61 2,63 4,63 17,63 19,63 19,61 19,57 "/>
<polygon fill="#7E8282" points="2,64 2,65 2,66 2,72 4,72 4,66 17,66 17,72 19,72 19,66 19,65 19,64 "/>
<path fill="#7E8282" d="M6,68h9v1H6V68z"/>
<path fill="#7E8282" d="M6,70h7v1H6V70z"/>
<path fill="#7E8282" d="M6,58h9v1H6V58z"/>
<polygon fill="#7E8282" points="3,30 2,30 2,32 3,32 3,43 2,43 2,45 3,45 5,45 5,43 5,32 5,30 "/>
<path fill="#7E8282" d="M6,30v15h13V30H6z M17,43H8V32h9V43z"/>
<path fill="#7E8282" d="M9,33h7v1H9V33z"/>
<path fill="#7E8282" d="M9,35h5v1H9V35z"/>
<path fill="#7E8282" d="M9,38h7v1H9V38z"/>
<path fill="#7E8282" d="M9,40h5v1H9V40z"/>
<path fill="#7E8282" d="M18,7H9V3l-7,7l7,7v-4h9V7z"/>
<path fill="#7E8282" d="M2,113v11h4v4l4-4h6v-11H2z M14,122H4v-7h10V122z"/>
<g>
	<path fill="#7E8282" d="M9.012,233.049h3.003v-3.007H9.012V233.049z M5.801,223.691h2.587c0-0.512,0.145-1.006,0.433-1.481
		c0.289-0.478,0.779-0.714,1.47-0.714c0.702,0,1.188,0.193,1.451,0.579c0.266,0.386,0.396,0.813,0.396,1.284
		c0,0.406-0.119,0.781-0.355,1.121c-0.131,0.197-0.305,0.379-0.518,0.547l-0.653,0.527c-0.643,0.521-1.041,0.979-1.196,1.377
		c-0.154,0.398-0.25,1.12-0.285,2.166h2.427c0.006-0.496,0.045-0.859,0.115-1.096c0.113-0.37,0.344-0.693,0.688-0.973l0.636-0.51
		c0.644-0.521,1.077-0.947,1.304-1.279c0.387-0.551,0.58-1.227,0.58-2.03c0-1.312-0.445-2.299-1.339-2.967
		c-0.894-0.667-2.013-1.001-3.362-1.001c-1.026,0-1.892,0.234-2.596,0.703C6.466,220.684,5.871,221.932,5.801,223.691L5.801,223.691
		z"/>
</g>
<path fill-rule="evenodd" clip-rule="evenodd" fill="#7E8282" d="M7.005,251h7v1h-7V251z"/>
<path fill-rule="evenodd" clip-rule="evenodd" fill="#7E8282" d="M7.005,253h4v1h-4V253z"/>
<path fill-rule="evenodd" clip-rule="evenodd" fill="#7E8282" d="M7.005,255h6v1h-6V255z"/>
<path fill-rule="evenodd" clip-rule="evenodd" fill="#7E8282" d="M18.94,261.931c-0.013-0.057-0.031-0.108-0.047-0.162
	c-0.036-0.128-0.079-0.251-0.133-0.368c-0.024-0.054-0.05-0.105-0.078-0.156c-0.062-0.117-0.134-0.225-0.213-0.328
	c-0.029-0.038-0.056-0.078-0.087-0.114c-0.113-0.132-0.236-0.254-0.374-0.356c-0.001-0.001-0.002-0.002-0.003-0.003V250
	c0-1.656-1.344-3-3-3h-7h-2h-3c-0.36,0-1,1.469-1,2c0,0.938-0.188,2,1,2v11c0,1.657,1.343,3,3,3h0h9h1.691h0.001
	c0.956,0,1.776-0.63,2.126-1.527c0.117-0.299,0.182-0.627,0.182-0.973C19.006,262.303,18.979,262.114,18.94,261.931z M6.005,263
	c-0.553,0-1-0.447-1-1v-12c0-0.553,0.447-1,1-1h9c0.553,0,1,0.447,1,1v10h-9c1.274,0,1.308,1.119,1.308,2.5
	c0,0.171-0.016,0.339-0.046,0.5H6.005z"/>
</svg>
